<svg width="233" height="185" viewBox="0 0 233 185" fill="none" xmlns="http://www.w3.org/2000/svg">
<path d="M226.836 103.261C215.801 166.125 140.255 192.756 82.7257 181.885C52.507 176.174 25.3848 178.751 6.25727 155.196C-18.8808 124.24 52.9007 126.722 77.1938 93.3692C119.847 34.8099 89.4814 11.369 113.459 2.60441C164.187 -15.9384 148.239 71.8442 195.01 46.6339C211.202 37.906 236.83 46.3258 226.836 103.261Z" fill="#FAFAFA" fill-opacity="0.05"/>
<path d="M228.9 144.458V156.197C228.9 160.644 218.432 164.223 205.49 164.223C192.548 164.223 182.081 160.624 182.081 156.197V144.458H228.9Z" fill="#FAFAFA"/>
<path d="M205.544 164.577C192.241 164.577 181.82 160.898 181.82 156.197V144.458C181.82 144.37 181.856 144.285 181.918 144.222C181.981 144.159 182.066 144.124 182.155 144.124H228.933C229.022 144.124 229.107 144.159 229.17 144.222C229.232 144.285 229.268 144.37 229.268 144.458V156.197C229.234 160.898 218.814 164.577 205.544 164.577ZM182.489 144.793V156.163C182.489 160.343 193.05 163.875 205.544 163.875C218.038 163.875 228.599 160.343 228.599 156.163V144.793H182.489Z" fill="#38434B"/>
<path d="M205.511 152.505C218.429 152.505 228.9 148.902 228.9 144.458C228.9 140.015 218.429 136.412 205.511 136.412C192.594 136.412 182.122 140.015 182.122 144.458C182.122 148.902 192.594 152.505 205.511 152.505Z" fill="#38434B"/>
<path d="M205.544 152.839C192.241 152.839 181.82 149.16 181.82 144.458C181.82 139.756 192.241 136.078 205.544 136.078C218.847 136.078 229.268 139.756 229.268 144.458C229.268 149.16 218.814 152.839 205.544 152.839ZM205.544 136.747C193.05 136.747 182.489 140.278 182.489 144.458C182.489 148.639 193.05 152.17 205.544 152.17C218.038 152.17 228.599 148.639 228.599 144.458C228.599 140.278 218.011 136.747 205.544 136.747Z" fill="#38434B"/>
<path d="M231.95 130.54V142.285C231.95 146.726 221.476 150.311 208.541 150.311C195.606 150.311 185.132 146.706 185.132 142.285V130.54H231.95Z" fill="#FAFAFA"/>
<path d="M208.561 150.665C195.257 150.665 184.837 146.98 184.837 142.285V130.54C184.837 130.451 184.872 130.366 184.935 130.304C184.998 130.241 185.083 130.206 185.171 130.206H231.95C232.038 130.207 232.122 130.243 232.184 130.305C232.247 130.368 232.282 130.452 232.284 130.54V142.285C232.298 146.98 221.864 150.665 208.561 150.665ZM185.479 130.874V142.285C185.479 146.465 196.033 149.996 208.534 149.996C221.034 149.996 231.629 146.465 231.629 142.285V130.874H185.479Z" fill="#38434B"/>
<path d="M208.561 138.586C221.479 138.586 231.95 134.984 231.95 130.54C231.95 126.096 221.479 122.494 208.561 122.494C195.644 122.494 185.172 126.096 185.172 130.54C185.172 134.984 195.644 138.586 208.561 138.586Z" fill="#38434B"/>
<path d="M208.561 138.92C195.257 138.92 184.837 135.242 184.837 130.54C184.837 125.838 195.257 122.159 208.561 122.159C221.864 122.159 232.298 125.845 232.298 130.54C232.298 135.235 221.864 138.92 208.561 138.92ZM208.561 122.828C196.06 122.828 185.506 126.36 185.506 130.54C185.506 134.72 196.06 138.252 208.561 138.252C221.061 138.252 231.629 134.707 231.629 130.54C231.629 126.373 221.054 122.828 208.561 122.828Z" fill="#38434B"/>
<path d="M228.178 113.592V125.343C228.178 129.791 217.704 133.369 204.769 133.369C191.833 133.369 181.359 129.771 181.359 125.343V113.592H228.178Z" fill="#FAFAFA"/>
<path d="M204.788 133.71C191.498 133.71 181.064 130.025 181.064 125.343V113.592C181.064 113.503 181.1 113.418 181.162 113.355C181.225 113.293 181.31 113.257 181.399 113.257H228.177C228.266 113.257 228.351 113.293 228.414 113.355C228.476 113.418 228.512 113.503 228.512 113.592V125.343C228.512 130.025 218.091 133.71 204.788 133.71ZM181.733 113.926V125.296C181.733 129.477 192.294 133.008 204.788 133.008C217.282 133.008 227.843 129.477 227.843 125.296V113.926H181.733Z" fill="#38434B"/>
<path d="M204.789 121.638C217.706 121.638 228.178 118.035 228.178 113.592C228.178 109.148 217.706 105.546 204.789 105.546C191.871 105.546 181.399 109.148 181.399 113.592C181.399 118.035 191.871 121.638 204.789 121.638Z" fill="#38434B"/>
<path d="M204.788 121.999C191.485 121.999 181.064 118.32 181.064 113.618C181.064 108.917 191.498 105.211 204.788 105.211C218.078 105.211 228.512 108.896 228.512 113.592C228.512 118.287 218.091 121.999 204.788 121.999ZM204.788 105.907C192.294 105.907 181.733 109.438 181.733 113.618C181.733 117.799 192.294 121.33 204.788 121.33C217.282 121.33 227.843 117.799 227.843 113.618C227.843 109.438 217.282 105.88 204.788 105.88V105.907Z" fill="#38434B"/>
<path d="M231.95 96.5833V108.321C231.95 112.769 221.476 116.347 208.541 116.347C195.606 116.347 185.132 112.749 185.132 108.321V96.5833H231.95Z" fill="#FAFAFA"/>
<path d="M208.561 116.695C195.257 116.695 184.837 113.016 184.837 108.315V96.5832C184.837 96.4945 184.872 96.4094 184.935 96.3467C184.998 96.284 185.083 96.2488 185.171 96.2488H231.95C232.038 96.2488 232.123 96.284 232.186 96.3467C232.249 96.4094 232.284 96.4945 232.284 96.5832V108.321C232.298 113.017 221.864 116.695 208.561 116.695ZM185.479 96.9109V108.281C185.479 112.461 196.033 115.993 208.534 115.993C221.034 115.993 231.629 112.495 231.629 108.315V96.9444L185.479 96.9109Z" fill="#38434B"/>
<path d="M208.561 104.623C221.479 104.623 231.95 101.02 231.95 96.5766C231.95 92.1329 221.479 88.5305 208.561 88.5305C195.644 88.5305 185.172 92.1329 185.172 96.5766C185.172 101.02 195.644 104.623 208.561 104.623Z" fill="#38434B"/>
<path d="M208.561 104.957C195.258 104.957 184.811 101.265 184.811 96.5832C184.811 91.9013 195.231 88.2026 208.534 88.2026C221.837 88.2026 232.298 91.9013 232.298 96.5832C232.298 101.265 221.864 104.957 208.561 104.957ZM208.561 88.8648C196.06 88.8648 185.506 92.3962 185.506 96.5765C185.506 100.757 196.06 104.288 208.561 104.288C221.061 104.288 231.629 100.757 231.629 96.5832C231.629 92.4096 221.055 88.8648 208.561 88.8648Z" fill="#38434B"/>
<path d="M224.405 82.658V94.4027C224.405 98.8438 213.938 102.429 200.996 102.429C188.054 102.429 177.587 98.8237 177.587 94.4027V82.658H224.405Z" fill="#FAFAFA"/>
<path d="M201.016 102.783C187.712 102.783 177.292 99.0981 177.292 94.4029V82.6581C177.294 82.57 177.329 82.4859 177.392 82.4236C177.454 82.3612 177.538 82.3254 177.626 82.3237H224.405C224.494 82.3237 224.579 82.359 224.641 82.4217C224.704 82.4844 224.739 82.5695 224.739 82.6581V94.4029C224.739 99.0981 214.319 102.783 201.016 102.783ZM177.961 82.9926V94.4029C177.961 98.5831 188.522 102.115 201.016 102.115C213.509 102.115 224.07 98.5898 224.07 94.4029V82.9926H177.961Z" fill="#38434B"/>
<path d="M201.016 90.7043C213.934 90.7043 224.405 87.1019 224.405 82.6582C224.405 78.2144 213.934 74.6121 201.016 74.6121C188.099 74.6121 177.627 78.2144 177.627 82.6582C177.627 87.1019 188.099 90.7043 201.016 90.7043Z" fill="#38434B"/>
<path d="M201.016 91.0386C187.712 91.0386 177.292 87.36 177.292 82.6581C177.292 77.9562 187.712 74.2776 201.016 74.2776C214.319 74.2776 224.739 77.9629 224.739 82.6581C224.739 87.3533 214.319 91.0386 201.016 91.0386ZM201.016 74.9464C188.522 74.9464 177.961 78.4779 177.961 82.6581C177.961 86.8383 188.522 90.3698 201.016 90.3698C213.509 90.3698 224.07 86.8383 224.07 82.6581C224.07 78.4779 213.516 74.9464 201.016 74.9464Z" fill="#38434B"/>
<path d="M229.542 68.7463V80.4844C229.542 84.9255 219.068 88.5104 206.133 88.5104C193.198 88.5104 182.724 84.9054 182.724 80.4844V68.7463H229.542Z" fill="#FAFAFA"/>
<path d="M206.153 88.8649C192.85 88.8649 182.43 85.1863 182.43 80.4844V68.7463C182.43 68.6576 182.465 68.5725 182.528 68.5098C182.59 68.4471 182.675 68.4119 182.764 68.4119H229.543C229.631 68.4119 229.716 68.4471 229.779 68.5098C229.842 68.5725 229.877 68.6576 229.877 68.7463V80.4844C229.877 85.213 219.456 88.8649 206.153 88.8649ZM183.099 69.0807V80.4844C183.099 84.6646 193.653 88.196 206.153 88.196C218.654 88.196 229.208 84.6646 229.208 80.4844V69.0807H183.099Z" fill="#38434B"/>
<path d="M206.153 76.7924C219.07 76.7924 229.542 73.19 229.542 68.7463C229.542 64.3026 219.07 60.7002 206.153 60.7002C193.235 60.7002 182.764 64.3026 182.764 68.7463C182.764 73.19 193.235 76.7924 206.153 76.7924Z" fill="#FAFAFA"/>
<path d="M206.153 77.1268C192.85 77.1268 182.43 73.4415 182.43 68.7462C182.43 64.051 192.837 60.3657 206.153 60.3657C219.47 60.3657 229.877 64.0443 229.877 68.7462C229.877 73.4482 219.456 77.1268 206.153 77.1268ZM206.153 61.0346C193.653 61.0346 183.099 64.566 183.099 68.7462C183.099 72.9265 193.653 76.4579 206.153 76.4579C218.654 76.4579 229.208 72.9265 229.208 68.7462C229.208 64.566 218.647 61.0346 206.153 61.0346Z" fill="#38434B"/>
<path d="M206.152 73.9564C196.341 73.9564 186.194 72.0101 186.194 68.7462C186.194 65.4823 196.341 63.5293 206.152 63.5293C215.964 63.5293 226.104 65.4823 226.104 68.7462C226.104 72.0101 215.958 73.9564 206.152 73.9564ZM206.152 64.1981C194.615 64.1981 186.863 66.5524 186.863 68.7462C186.863 70.94 194.615 73.2876 206.152 73.2876C217.69 73.2876 225.435 70.94 225.435 68.7462C225.435 66.5524 217.683 64.1981 206.152 64.1981Z" fill="#D1D3D4"/>
<path d="M193.311 68.1578L196.936 68.3451L197.98 67.6763H197.712L194.636 67.5224H194.361L195.659 66.7265L199.391 66.9138L202.006 65.3086L204.441 65.429C204.106 65.6363 203.772 65.837 203.451 66.0376C203.023 66.3185 203.237 66.4924 204.019 66.5326L213.718 67.0275H213.885C214.346 67.0633 214.808 66.9731 215.222 66.7667C215.503 66.6061 215.764 66.4389 216.032 66.2784L216.186 66.1848H219.162L216.533 67.7967L220.299 67.9839L218.961 68.7932L215.263 68.606L214.226 69.2748L217.925 69.4621L216.587 70.2647H216.319L213.189 70.1042C212.801 70.1042 212.868 70.0573 212.587 70.2112C211.733 70.6911 210.838 71.094 209.912 71.4151C208.585 71.8623 207.204 72.13 205.805 72.211C204.85 72.2854 203.891 72.2854 202.936 72.211C202.523 72.1762 202.114 72.1091 201.712 72.0103C200.99 71.8097 200.929 71.4886 201.13 71.1342C201.17 71.0606 201.23 70.9803 201.291 70.8934L200.836 71.0138C200.332 71.1454 199.82 71.2459 199.304 71.3147C198.417 71.4316 197.521 71.4585 196.629 71.395C195.05 71.2947 194.348 70.9736 194.535 70.4185C194.778 69.9684 195.133 69.5884 195.565 69.3149C195.646 69.2547 195.612 69.2347 195.438 69.228L192.429 69.0741H191.934L193.311 68.1578ZM207.444 68.2047L206.568 68.7464C206.056 69.0266 205.602 69.401 205.23 69.85C205.076 70.0975 205.103 70.3115 205.578 70.4586C206.666 70.6628 207.787 70.5939 208.842 70.258C209.515 70.0653 210.165 69.8007 210.781 69.4688C211.377 69.1544 211.885 68.7999 212.427 68.5056C212.448 68.4922 212.469 68.4765 212.487 68.4588L207.444 68.2047ZM204.956 68.0776L200.896 67.8702C200.756 67.8463 200.611 67.8723 200.488 67.9438C199.964 68.2323 199.467 68.5681 199.003 68.9471C198.776 69.1678 198.602 69.3818 198.776 69.5691C199.104 69.8968 200.715 70.0239 202.28 69.529C202.762 69.3729 203.231 69.1829 203.685 68.9604C204.247 68.6795 204.702 68.3919 205.223 68.0976L204.956 68.0776Z" fill="#267CCB"/>
<path d="M139.951 148.579V160.317C139.951 164.758 150.425 168.343 163.36 168.343C176.296 168.343 186.77 164.738 186.77 160.317V148.579H139.951Z" fill="#FAFAFA"/>
<path d="M163.341 168.697C150.038 168.697 139.617 165.019 139.617 160.317V148.579C139.617 148.49 139.652 148.405 139.715 148.342C139.778 148.279 139.863 148.244 139.952 148.244H186.73C186.819 148.244 186.904 148.279 186.966 148.342C187.029 148.405 187.064 148.49 187.064 148.579V160.317C187.064 165.019 176.644 168.697 163.341 168.697ZM140.286 148.913V160.283C140.286 164.463 150.847 167.995 163.341 167.995C175.835 167.995 186.396 164.463 186.396 160.283V148.913H140.286Z" fill="#38434B"/>
<path d="M163.34 156.625C176.258 156.625 186.73 153.022 186.73 148.579C186.73 144.135 176.258 140.532 163.34 140.532C150.423 140.532 139.951 144.135 139.951 148.579C139.951 153.022 150.423 156.625 163.34 156.625Z" fill="#38434B"/>
<path d="M163.341 156.959C150.038 156.959 139.617 153.274 139.617 148.579C139.617 143.883 150.031 140.198 163.341 140.198C176.651 140.198 187.064 143.877 187.064 148.579C187.064 153.28 176.644 156.959 163.341 156.959ZM163.341 140.867C150.847 140.867 140.286 144.398 140.286 148.579C140.286 152.759 150.847 156.29 163.341 156.29C175.835 156.29 186.396 152.759 186.396 148.579C186.396 144.398 175.841 140.867 163.341 140.867Z" fill="#38434B"/>
<path d="M145.463 132.486V144.224C145.463 148.665 155.93 152.25 168.872 152.25C181.814 152.25 192.281 148.645 192.281 144.224V132.486H145.463Z" fill="#FAFAFA"/>
<path d="M168.853 152.605C155.549 152.605 145.129 148.926 145.129 144.224V132.486C145.129 132.398 145.164 132.313 145.227 132.25C145.29 132.187 145.375 132.152 145.463 132.152H192.242C192.33 132.152 192.415 132.187 192.478 132.25C192.541 132.313 192.576 132.398 192.576 132.486V144.224C192.576 148.926 182.136 152.605 168.853 152.605ZM145.798 132.821V144.191C145.798 148.371 156.352 151.903 168.853 151.903C181.353 151.903 191.907 148.371 191.907 144.191V132.821H145.798Z" fill="#38434B"/>
<path d="M168.852 140.532C181.77 140.532 192.241 136.93 192.241 132.486C192.241 128.043 181.77 124.44 168.852 124.44C155.935 124.44 145.463 128.043 145.463 132.486C145.463 136.93 155.935 140.532 168.852 140.532Z" fill="#38434B"/>
<path d="M168.853 140.867C155.549 140.867 145.129 137.181 145.129 132.486C145.129 127.791 155.549 124.106 168.853 124.106C182.156 124.106 192.576 127.784 192.576 132.486C192.576 137.188 182.136 140.867 168.853 140.867ZM168.853 124.775C156.352 124.775 145.798 128.306 145.798 132.486C145.798 136.666 156.352 140.198 168.853 140.198C181.353 140.198 191.907 136.666 191.907 132.486C191.907 128.306 181.346 124.775 168.853 124.775Z" fill="#38434B"/>
<path d="M140.667 114.548V126.286C140.667 130.727 151.141 134.312 164.076 134.312C177.012 134.312 187.486 130.707 187.486 126.286V114.548H140.667Z" fill="#FAFAFA"/>
<path d="M164.076 134.667C150.78 134.667 140.353 130.982 140.353 126.286V114.548C140.353 114.46 140.388 114.375 140.45 114.312C140.513 114.249 140.598 114.214 140.687 114.214H187.485C187.574 114.214 187.659 114.249 187.722 114.312C187.785 114.375 187.82 114.46 187.82 114.548V126.286C187.793 130.982 177.366 134.667 164.076 134.667ZM141.021 114.883V126.253C141.021 130.433 151.582 133.965 164.076 133.965C176.57 133.965 187.138 130.433 187.138 126.253V114.883H141.021Z" fill="#38434B"/>
<path d="M164.063 122.594C176.981 122.594 187.452 118.992 187.452 114.548C187.452 110.104 176.981 106.502 164.063 106.502C151.146 106.502 140.674 110.104 140.674 114.548C140.674 118.992 151.146 122.594 164.063 122.594Z" fill="#FAFAFA"/>
<path d="M164.076 122.929C150.78 122.929 140.353 119.243 140.353 114.548C140.353 109.853 150.766 106.168 164.076 106.168C177.386 106.168 187.806 109.846 187.806 114.548C187.806 119.25 177.366 122.929 164.076 122.929ZM164.076 106.837C151.582 106.837 141.021 110.368 141.021 114.548C141.021 118.728 151.569 122.26 164.076 122.26C176.583 122.26 187.138 118.728 187.138 114.548C187.138 110.368 176.563 106.837 164.076 106.837V106.837Z" fill="#38434B"/>
<path d="M164.076 119.758C154.271 119.758 144.125 117.812 144.125 114.548C144.125 111.284 154.271 109.331 164.076 109.331C173.882 109.331 184.034 111.284 184.034 114.548C184.034 117.812 173.875 119.758 164.076 119.758ZM164.076 110C152.546 110 144.794 112.348 144.794 114.548C144.794 116.749 152.546 119.09 164.076 119.09C175.607 119.09 183.366 116.742 183.366 114.548C183.366 112.354 175.6 110 164.076 110Z" fill="#D1D3D4"/>
<path d="M178.443 114.755L177.949 114.789L174.939 114.936C174.765 114.936 174.731 114.969 174.818 115.03C175.247 115.305 175.6 115.685 175.842 116.133C176.029 116.688 175.327 117.009 173.748 117.11C172.856 117.173 171.96 117.146 171.073 117.03C170.557 116.961 170.045 116.86 169.541 116.729L169.086 116.608C169.145 116.685 169.199 116.765 169.247 116.849C169.448 117.203 169.387 117.518 168.665 117.725C168.263 117.824 167.854 117.892 167.441 117.926C166.486 117.997 165.527 117.997 164.572 117.926C163.174 117.845 161.792 117.577 160.465 117.13C159.541 116.806 158.645 116.403 157.79 115.926C157.509 115.772 157.576 115.799 157.188 115.819L154.058 115.973H153.79L152.452 115.17L156.151 114.983L155.114 114.354L151.416 114.541L150.078 113.732L153.85 113.545L151.295 111.966H154.272L154.426 112.053C154.7 112.221 154.961 112.388 155.235 112.548C155.65 112.752 156.111 112.842 156.573 112.809H156.74L166.438 112.321C167.22 112.281 167.434 112.107 167.006 111.826C166.692 111.625 166.338 111.425 166.016 111.217L168.451 111.097L171.066 112.702L174.798 112.508L176.116 113.304H175.842L172.765 113.458H172.498L173.541 114.093L177.173 113.913L178.443 114.755ZM157.997 114.261L158.057 114.307C158.599 114.628 159.107 114.976 159.703 115.27C160.319 115.602 160.969 115.867 161.642 116.06C162.698 116.392 163.818 116.461 164.906 116.26C165.381 116.113 165.408 115.899 165.254 115.652C164.882 115.203 164.428 114.828 163.916 114.548C163.635 114.368 163.341 114.194 163.04 114.006L157.997 114.261ZM165.227 113.893C165.749 114.187 166.204 114.481 166.766 114.755C167.218 114.983 167.688 115.175 168.17 115.331C169.735 115.826 171.347 115.699 171.675 115.364C171.849 115.184 171.675 114.969 171.447 114.749C170.986 114.368 170.488 114.032 169.963 113.746C169.839 113.676 169.696 113.648 169.555 113.665L165.495 113.873L165.227 113.893Z" fill="#267CCB"/>
<path d="M105.446 148.739L109.767 154.672L114.094 150.411L110.663 143.843L105.446 148.739Z" fill="#FAFAFA"/>
<path d="M109.767 154.973C109.723 154.97 109.681 154.958 109.643 154.937C109.605 154.916 109.572 154.887 109.546 154.852L105.219 148.92C105.175 148.86 105.154 148.785 105.162 148.711C105.169 148.637 105.204 148.568 105.259 148.518L110.476 143.623C110.51 143.589 110.551 143.564 110.596 143.55C110.642 143.536 110.69 143.534 110.737 143.542C110.783 143.551 110.827 143.57 110.865 143.598C110.903 143.626 110.935 143.661 110.957 143.703L114.382 150.271C114.413 150.328 114.425 150.393 114.415 150.457C114.406 150.521 114.375 150.58 114.328 150.625L110.001 154.886C109.971 154.917 109.935 154.942 109.894 154.957C109.853 154.972 109.81 154.977 109.767 154.973V154.973ZM105.888 148.753L109.84 154.177L113.753 150.324L110.616 144.305L105.888 148.753Z" fill="#38434B"/>
<path d="M57.8387 155.354L53.7186 160.343L49.1104 157.22L53.4779 149.789L57.8387 155.354Z" fill="#FAFAFA"/>
<path d="M53.7177 160.651C53.6581 160.649 53.6003 160.63 53.5504 160.597L48.9355 157.447C48.8713 157.404 48.8259 157.337 48.8086 157.262C48.7912 157.186 48.8031 157.107 48.8418 157.039L53.2093 149.608C53.234 149.565 53.2688 149.529 53.3108 149.502C53.3527 149.475 53.4005 149.459 53.4501 149.455C53.5002 149.454 53.55 149.463 53.5961 149.483C53.6422 149.502 53.6836 149.532 53.7177 149.568L58.0785 155.14C58.1225 155.194 58.1465 155.261 58.1465 155.33C58.1465 155.4 58.1225 155.467 58.0785 155.521L53.9517 160.511C53.9262 160.55 53.8917 160.584 53.8511 160.608C53.8105 160.633 53.7649 160.647 53.7177 160.651V160.651ZM49.5241 157.126L53.6641 159.935L57.4564 155.347L53.517 150.331L49.5241 157.126Z" fill="#38434B"/>
<path d="M80.7658 98.543C80.7658 98.543 77.6022 129.898 75.4151 135.329C71.9839 143.85 57.8381 156.337 57.8381 156.337L51.3838 151.715C51.3838 151.715 56.8147 139.342 60.1924 131.276C60.9682 129.423 60.1924 98.0012 60.1924 98.0012L80.7658 98.543Z" fill="#38434B"/>
<path d="M60.1924 97.9944C60.1924 97.9944 67.4426 104.201 69.9507 108.027C72.4588 111.853 104.871 149.689 104.871 149.689L112.455 145.167L85.3807 93.239L60.1924 97.9944Z" fill="#38434B"/>
<path d="M79.6761 60.0114C78.0241 59.1687 82.7327 58.6135 86.0768 66.8001L91.976 81.2001L110.703 78.9863L115.191 85.581C115.191 85.581 88.8993 90.7578 88.2639 90.1692C79.3952 82.0094 79.6761 60.0114 79.6761 60.0114Z" fill="#FAFAFA"/>
<path d="M88.5516 90.4968C88.3758 90.5175 88.1977 90.4898 88.0366 90.4165C84.3178 86.9787 81.7227 80.8054 80.3383 72.0837C79.7255 68.1488 79.4036 64.1741 79.3751 60.1918C79.1143 60.0179 79.0006 59.8307 79.034 59.6233C79.034 59.523 79.1343 59.2956 79.5156 59.2621C80.7061 59.1418 83.95 60.7938 86.3578 66.6862L92.17 80.899L110.65 78.7119C110.705 78.706 110.762 78.7153 110.812 78.7389C110.863 78.7624 110.906 78.7994 110.938 78.8457L115.425 85.4337C115.448 85.4782 115.46 85.5275 115.46 85.5775C115.46 85.6275 115.448 85.6768 115.425 85.7213C115.408 85.7689 115.378 85.8111 115.34 85.8439C115.301 85.8768 115.254 85.899 115.205 85.9086C104.276 88.0622 91.3072 90.4968 88.5516 90.4968ZM88.4111 89.9283C89.6886 90.1289 104.57 87.38 114.656 85.4003L110.57 79.3406L92.0496 81.5344C91.9823 81.5408 91.9148 81.5255 91.8569 81.4905C91.7991 81.4556 91.7541 81.403 91.7285 81.3404L85.8227 66.9203C83.6624 61.6365 81.0405 60.1851 79.9971 59.9176C80.0008 59.9509 80.0008 59.9846 79.9971 60.0179C79.9838 60.2386 79.8032 81.9022 88.4111 89.9283Z" fill="#38434B"/>
<path d="M74.8136 40.7219C73.8568 39.6554 72.6117 38.8888 71.2286 38.5148C70.0448 38.274 69.3559 38.7355 68.3259 39.1234C67.9179 39.2839 67.8376 39.8992 67.4029 40.0129C66.9681 40.1267 66.1321 39.6785 65.6505 39.6384C64.1808 39.4982 62.7025 39.7978 61.4033 40.4992C60.1042 41.2006 59.0426 42.2721 58.3535 43.5778C57.2433 45.6245 56.7483 47.952 55.6782 49.9987C54.3405 52.4332 52.2805 54.3595 50.8759 56.7405C50.0394 58.0945 49.4892 59.6054 49.2591 61.1802C49.029 62.755 49.124 64.3602 49.5383 65.8969C51.4244 72.0703 56.9557 71.9164 62.2997 71.9164C66.1777 71.9253 70.0106 71.0852 73.5294 69.4551C76.2917 68.1709 81.3347 65.4421 82.0236 62.1648C82.6925 59.0614 81.4819 54.1923 80.686 51.1758C79.6863 47.2337 77.6601 43.6267 74.8136 40.7219V40.7219Z" fill="#FAFAFA"/>
<path d="M62.3658 72.2846H61.9243C56.6205 72.2846 51.1293 72.2846 49.2165 65.9975C48.7872 64.4183 48.6844 62.7681 48.9144 61.1478C49.1444 59.5275 49.7023 57.9711 50.5541 56.5736C51.2461 55.4623 52.0149 54.4008 52.8549 53.3967C53.7873 52.2893 54.622 51.1033 55.3497 49.8518C55.8685 48.8366 56.3155 47.7861 56.6874 46.7083C57.0701 45.5821 57.5328 44.4846 58.0718 43.4243C58.7973 42.0663 59.9067 40.9521 61.2615 40.2205C62.6163 39.489 64.1565 39.1727 65.6899 39.311C65.9562 39.3473 66.2168 39.4169 66.4657 39.5183C66.7391 39.6334 67.032 39.6947 67.3285 39.6989C67.4289 39.6989 67.5158 39.5451 67.6228 39.3912C67.7543 39.1422 67.9632 38.9426 68.2181 38.8227L68.7732 38.602C69.5484 38.1853 70.4413 38.0416 71.3081 38.194C72.7514 38.5903 74.0526 39.3882 75.0603 40.4948C77.9372 43.4468 79.9837 47.106 80.9929 51.1026C81.8824 54.4066 82.9994 59.1286 82.3305 62.2387C81.6617 65.429 77.2407 68.091 73.6357 69.7631C70.1055 71.4083 66.2605 72.2686 62.3658 72.2846V72.2846ZM64.9742 39.9397C63.6703 39.9289 62.3888 40.2786 61.2711 40.9501C60.1534 41.6217 59.243 42.589 58.6404 43.7454C58.1218 44.7769 57.6749 45.8428 57.3027 46.9357C56.9357 48.0435 56.4886 49.1232 55.965 50.1662C55.2128 51.444 54.3489 52.6526 53.3833 53.7779C52.5615 54.7577 51.8105 55.7948 51.136 56.8813C50.3243 58.2046 49.7923 59.6802 49.5726 61.2169C49.3529 62.7537 49.4502 64.3192 49.8585 65.817C51.6243 71.6158 56.6272 71.6225 61.8976 71.6358H62.2721C66.1129 71.6254 69.9057 70.7811 73.3882 69.1611C78.2707 66.8871 81.2203 64.379 81.6951 62.1049C82.3038 59.1687 81.2203 54.5136 80.3575 51.2698C79.3793 47.3762 77.3878 43.8109 74.5854 40.9363V40.9363C73.682 39.9044 72.4924 39.1641 71.1676 38.8094C70.431 38.6889 69.6752 38.8184 69.0207 39.1772C68.8401 39.2575 68.6528 39.3377 68.4522 39.4113C68.3328 39.4899 68.236 39.5983 68.1713 39.7257C68.0307 39.9993 67.7917 40.2096 67.5024 40.3142C67.0772 40.361 66.6473 40.2916 66.2584 40.1136C66.0574 40.0349 65.849 39.9766 65.6364 39.9397C65.409 39.9531 65.1883 39.9397 64.9742 39.9397V39.9397Z" fill="#38434B"/>
<path d="M53.5911 65.6962C57.1493 58.339 75.1812 52.9883 81.9297 58.6801C88.6783 64.3719 91.6145 96.9576 91.6145 96.9576L58.4001 103.646C58.4001 103.646 50.0329 73.0333 53.5911 65.6962Z" fill="#267CCB"/>
<path d="M75.6958 64.2315C77.2007 71.0336 82.2036 99.9474 82.2036 99.9474L74.4518 101.038L66.4258 64.1446C66.4258 64.1446 68.0644 62.7936 75.6958 64.2315Z" fill="#38434B"/>
<path d="M74.1647 59.2487L75.5024 64.5325C75.5024 64.5325 75.4355 67.1209 71.6833 67.2079C67.9312 67.2948 66.7808 64.994 66.7808 64.994L64.6338 55.0351C64.6338 55.0351 69.3892 50.6542 67.1285 45.1831C68.1654 46.314 69.5249 47.0989 71.0227 47.4314C72.5205 47.764 74.0843 47.6282 75.5024 47.0425C76.2284 49.6314 76.7935 52.2627 77.1945 54.9214C77.4888 57.7907 74.1647 59.2487 74.1647 59.2487Z" fill="#FAFAFA"/>
<path d="M71.5033 67.5358C67.7377 67.5358 66.5338 65.235 66.487 65.1347C66.4844 65.108 66.4844 65.0811 66.487 65.0544L64.3133 55.1155C64.2993 55.0585 64.3007 54.9988 64.3171 54.9424C64.3335 54.8861 64.3645 54.835 64.4069 54.7945C64.4537 54.7543 68.9617 50.5005 66.8214 45.317C66.7905 45.2436 66.7868 45.1615 66.811 45.0855C66.8352 45.0096 66.8858 44.9448 66.9536 44.9029C67.0214 44.8609 67.1019 44.8445 67.1807 44.8567C67.2594 44.8689 67.3313 44.9088 67.3832 44.9693C68.3672 46.0571 69.6654 46.8116 71.0977 47.128C72.5299 47.4444 74.0252 47.307 75.3758 46.735C75.4188 46.7152 75.4656 46.7049 75.5129 46.7049C75.5603 46.7049 75.6071 46.7152 75.6501 46.735C75.6919 46.7555 75.729 46.7846 75.7589 46.8203C75.7889 46.856 75.811 46.8976 75.824 46.9423C76.5563 49.5508 77.126 52.2023 77.5295 54.8814C77.797 57.4765 75.3691 58.9881 74.5532 59.4228L75.8306 64.4458C75.8375 64.4766 75.8375 64.5086 75.8306 64.5394C75.8306 64.5394 75.7036 67.4488 71.6839 67.5224L71.5033 67.5358ZM67.1023 64.8604C67.2562 65.1347 68.4066 66.9271 71.6772 66.8669C74.9478 66.8068 75.1417 64.8604 75.1685 64.5728L73.8308 59.3359C73.8131 59.2587 73.8228 59.1779 73.8582 59.1071C73.8936 59.0363 73.9525 58.9801 74.0248 58.9479C74.0248 58.9479 77.1215 57.5233 76.854 54.9349C76.4839 52.4136 75.9544 49.9183 75.2688 47.464C74.0297 47.9192 72.6941 48.0469 71.3912 47.8348C70.0883 47.6227 68.8622 47.078 67.8314 46.2534C68.9483 50.7948 65.758 54.4065 65.0022 55.1155L67.1023 64.8604Z" fill="#38434B"/>
<path d="M66.2324 54.3195C64.7409 51.584 60.273 53.4634 62.527 56.3661C62.7615 56.6844 63.0567 56.9531 63.3954 57.1568C63.7342 57.3604 64.11 57.4951 64.501 57.5529C64.8921 57.6107 65.2907 57.5906 65.6739 57.4936C66.0572 57.3967 66.4174 57.2249 66.734 56.9882" fill="#FAFAFA"/>
<path d="M64.9876 57.9312C64.8605 57.9312 64.7335 57.9312 64.5997 57.9312C64.1406 57.8735 63.6975 57.7256 63.2957 57.496C62.894 57.2665 62.5416 56.9598 62.2588 56.5936C61.3224 55.3629 61.5431 54.4466 61.7438 53.9717C61.9542 53.5682 62.2712 53.2302 62.6603 52.9943C63.0495 52.7585 63.4959 52.6339 63.9509 52.6341C64.4756 52.6219 64.9933 52.7563 65.4458 53.0222C65.8983 53.288 66.2677 53.6747 66.5126 54.1389C66.5536 54.2173 66.5626 54.3085 66.5376 54.3934C66.5126 54.4782 66.4557 54.5501 66.3788 54.5937C66.3402 54.6149 66.2977 54.6283 66.254 54.633C66.2102 54.6378 66.1659 54.6338 66.1236 54.6214C66.0813 54.6089 66.0419 54.5883 66.0077 54.5606C65.9734 54.5329 65.945 54.4987 65.924 54.46C65.7422 54.1013 65.4619 53.8019 65.116 53.597C64.7701 53.392 64.3729 53.29 63.971 53.3029C63.6272 53.2672 63.281 53.3429 62.9836 53.519C62.6861 53.695 62.4531 53.962 62.319 54.2805C62.1848 54.599 62.1566 54.9523 62.2385 55.2881C62.3204 55.6238 62.508 55.9244 62.7738 56.1454C63.003 56.4405 63.2882 56.6875 63.613 56.8723C63.9378 57.0571 64.2958 57.176 64.6666 57.2223C64.992 57.2633 65.3224 57.2389 65.6382 57.1505C65.9541 57.062 66.2491 56.9113 66.5059 56.7073C66.5751 56.6514 66.6636 56.6253 66.752 56.6347C66.8405 56.6441 66.9215 56.6882 66.9774 56.7574C67.0333 56.8266 67.0594 56.9152 67.05 57.0036C67.0406 57.092 66.9964 57.1731 66.9272 57.229C66.3789 57.676 65.695 57.9236 64.9876 57.9312V57.9312Z" fill="#38434B"/>
<path d="M71.9844 51.0288C71.9844 51.0288 74.6597 53.2025 74.3387 53.8112C74.0176 54.4198 72.7402 54.48 72.7402 54.48" fill="#FAFAFA"/>
<path d="M72.7399 54.8011C72.6513 54.8011 72.5662 54.7659 72.5035 54.7031C72.4408 54.6404 72.4055 54.5554 72.4055 54.4667C72.4055 54.378 72.4408 54.2929 72.5035 54.2302C72.5662 54.1675 72.6513 54.1323 72.7399 54.1323C73.1881 54.1323 73.9171 53.9517 74.0776 53.6641C74.0776 53.4032 73.0075 52.2729 71.8103 51.283C71.7764 51.2549 71.7485 51.2204 71.728 51.1815C71.7075 51.1426 71.6949 51.1 71.6909 51.0563C71.6868 51.0125 71.6915 50.9683 71.7045 50.9263C71.7175 50.8843 71.7387 50.8453 71.7668 50.8115C71.7949 50.7777 71.8294 50.7497 71.8683 50.7292C71.9072 50.7087 71.9498 50.6961 71.9935 50.6921C72.0373 50.6881 72.0815 50.6927 72.1235 50.7057C72.1655 50.7187 72.2045 50.7399 72.2383 50.768C73.5359 51.8381 75.0207 53.2561 74.6863 53.9517C74.3518 54.6473 72.9473 54.7944 72.7934 54.8011H72.7399Z" fill="#38434B"/>
<path d="M69.2848 50.6178C69.5308 50.5382 69.639 50.1916 69.5264 49.8437C69.4138 49.4957 69.1231 49.2782 68.8771 49.3578C68.6311 49.4374 68.5229 49.784 68.6355 50.1319C68.7481 50.4799 69.0388 50.6974 69.2848 50.6178Z" fill="#38434B"/>
<path d="M73.4772 50.3627C73.7232 50.2831 73.8313 49.9365 73.7188 49.5885C73.6062 49.2406 73.3155 49.0231 73.0695 49.1027C72.8235 49.1823 72.7153 49.5289 72.8279 49.8768C72.9404 50.2247 73.2311 50.4423 73.4772 50.3627Z" fill="#38434B"/>
<path d="M72.6461 57.182C72.4643 57.1801 72.283 57.1622 72.1044 57.1285C71.6029 57.0062 71.1342 56.7758 70.731 56.4535C70.3278 56.1312 69.9999 55.7247 69.7701 55.2625C69.7463 55.2256 69.7303 55.1841 69.7231 55.1408C69.7159 55.0974 69.7177 55.053 69.7283 55.0104C69.739 54.9678 69.7583 54.9278 69.785 54.8929C69.8118 54.858 69.8454 54.829 69.8838 54.8077C69.9215 54.7846 69.9634 54.7692 70.0071 54.7625C70.0508 54.7557 70.0954 54.7577 70.1383 54.7683C70.1812 54.7788 70.2216 54.7978 70.2571 54.8241C70.2927 54.8504 70.3226 54.8834 70.3453 54.9214C70.5322 55.2965 70.7972 55.6272 71.1225 55.8914C71.4478 56.1556 71.826 56.3471 72.2314 56.453C73.0276 56.544 73.8286 56.3288 74.472 55.851C74.5422 55.7971 74.6308 55.7732 74.7186 55.7844C74.8063 55.7957 74.886 55.8413 74.9402 55.9112C74.9949 55.9805 75.02 56.0687 75.0099 56.1564C74.9999 56.2441 74.9556 56.3242 74.8867 56.3794C74.2382 56.8674 73.457 57.1472 72.6461 57.182Z" fill="#38434B"/>
<path d="M74.1648 59.2488C74.1648 59.2488 71.4025 59.8842 69.9512 59.4294C69.9512 59.4294 71.737 62.3321 74.9206 62.4391L74.1648 59.2488Z" fill="#38434B"/>
<path d="M74.9205 62.7734C71.5763 62.6597 69.7571 59.7235 69.6768 59.6031C69.6442 59.5445 69.6296 59.4775 69.6348 59.4105C69.6401 59.3436 69.665 59.2797 69.7064 59.2268C69.7478 59.174 69.804 59.1345 69.8677 59.1134C69.9314 59.0923 70 59.0905 70.0648 59.1082C71.4024 59.5363 74.0778 58.9276 74.0778 58.9209C74.1204 58.9111 74.1646 58.91 74.2077 58.9175C74.2508 58.925 74.2919 58.9411 74.3287 58.9648C74.3655 58.9885 74.3971 59.0193 74.4218 59.0554C74.4465 59.0915 74.4637 59.1322 74.4724 59.1751L75.2282 62.3654C75.2409 62.4152 75.2414 62.4673 75.2298 62.5174C75.2181 62.5674 75.1946 62.6139 75.1613 62.653C75.132 62.689 75.0954 62.7183 75.0538 62.7391C75.0123 62.7598 74.9669 62.7716 74.9205 62.7734V62.7734ZM70.7336 59.9041C71.6799 61.0613 73.0169 61.8321 74.4925 62.0712L73.9173 59.6433C72.8707 59.8602 71.8015 59.9478 70.7336 59.9041V59.9041Z" fill="#38434B"/>
<path d="M78.7729 66.6127C78.0167 66.59 77.2663 66.4732 76.539 66.2649C76.5008 66.2535 76.4652 66.2347 76.4342 66.2095C76.4033 66.1843 76.3777 66.1533 76.3587 66.1182C76.3398 66.0831 76.3279 66.0447 76.3238 66.005C76.3198 65.9653 76.3236 65.9252 76.335 65.887C76.3464 65.8488 76.3652 65.8132 76.3904 65.7823C76.4156 65.7514 76.4466 65.7257 76.4817 65.7068C76.5168 65.6878 76.5552 65.676 76.5949 65.6719C76.6346 65.6678 76.6747 65.6716 76.7129 65.683C77.2613 65.8436 78.8465 66.1914 79.6022 65.877C79.6825 65.4423 77.7696 62.9274 75.9036 60.8808C75.8486 60.8205 75.8198 60.7408 75.8236 60.6593C75.8273 60.5777 75.8633 60.501 75.9236 60.4461C75.984 60.3911 76.0636 60.3623 76.1452 60.3661C76.2267 60.3698 76.3034 60.4058 76.3584 60.4661C77.3081 61.5162 80.3714 65.0075 80.1574 66.0576C80.1393 66.1434 80.1006 66.2235 80.0447 66.2911C79.9887 66.3587 79.9173 66.4117 79.8363 66.4455C79.4952 66.5663 79.1346 66.623 78.7729 66.6127V66.6127Z" fill="#38434B"/>
<path d="M64.0051 66.9537C63.4243 66.9856 62.8476 66.8385 62.353 66.5323C61.4903 65.9036 62.547 64.1579 63.8111 62.2785C64.0118 61.9708 64.2459 61.6097 64.2793 61.5428C64.3093 61.4677 64.367 61.4071 64.4404 61.3735C64.5139 61.3399 64.5975 61.3358 64.6739 61.3622C64.7488 61.3921 64.809 61.4501 64.8416 61.5239C64.8741 61.5978 64.8763 61.6814 64.8478 61.7568C64.6957 62.0585 64.519 62.347 64.3194 62.6196C62.6139 65.1679 62.5069 65.8835 62.7142 66.0374C63.3831 66.5189 64.801 66.3116 65.2959 66.1912C65.3721 66.179 65.4501 66.1959 65.5144 66.2385C65.5787 66.2811 65.6247 66.3463 65.6432 66.4212C65.6618 66.4961 65.6514 66.5752 65.6144 66.6428C65.5773 66.7105 65.5162 66.7618 65.4431 66.7865C64.9708 66.8916 64.4889 66.9476 64.0051 66.9537Z" fill="#38434B"/>
<path d="M124.937 104.937C146.369 104.937 163.743 87.5632 163.743 66.1313C163.743 44.6994 146.369 27.3254 124.937 27.3254C103.505 27.3254 86.1309 44.6994 86.1309 66.1313C86.1309 87.5632 103.505 104.937 124.937 104.937Z" fill="#38434B"/>
<path d="M122.782 101.907C144.214 101.907 161.588 84.5332 161.588 63.1013C161.588 41.6694 144.214 24.2954 122.782 24.2954C101.351 24.2954 83.9766 41.6694 83.9766 63.1013C83.9766 84.5332 101.351 101.907 122.782 101.907Z" fill="#FAFAFA"/>
<path d="M122.863 102.222C120.908 102.219 118.957 102.074 117.024 101.787C109.374 100.647 102.234 97.2646 96.5064 92.0672C90.7789 86.8698 86.7212 80.0907 84.8462 72.5873C82.9713 65.0838 83.3634 57.1928 85.9729 49.9122C88.5824 42.6315 93.2922 36.2881 99.5067 31.684C105.721 27.08 113.161 24.422 120.886 24.0462C128.611 23.6704 136.274 25.5937 142.907 29.5728C149.539 33.552 154.842 39.4083 158.146 46.4013C161.45 53.3943 162.606 61.2099 161.468 68.86L161.16 68.8198L161.468 68.86C160.088 78.1196 155.435 86.5778 148.351 92.699C141.268 98.8203 132.224 102.199 122.863 102.222ZM122.762 24.6365C115.391 24.6445 108.177 26.7685 101.977 30.7563C95.7777 34.744 90.8533 40.4278 87.7892 47.1322C84.7251 53.8365 83.6503 61.2796 84.6923 68.577C85.7344 75.8743 88.8495 82.7191 93.6676 88.2979C98.4857 93.8767 104.804 97.955 111.872 100.048C118.94 102.141 126.46 102.161 133.539 100.106C140.618 98.0503 146.958 94.0057 151.806 88.4526C156.654 82.8995 159.805 76.0714 160.886 68.7797V68.7797C162.38 58.676 159.803 48.3922 153.721 40.187C147.639 31.9818 138.549 26.5259 128.447 25.0178C126.565 24.7413 124.665 24.6027 122.762 24.6031V24.6365Z" fill="#38434B"/>
<path d="M122.802 93.8679C118.378 93.8699 114.005 92.9177 109.982 91.0762C105.959 89.2348 102.381 86.5474 99.4914 83.1973C96.6016 79.8473 94.4683 75.9133 93.237 71.6639C92.0057 67.4145 91.7054 62.9494 92.3565 58.5734C93.2235 52.7465 95.7452 47.291 99.6218 42.8553C103.498 38.4195 108.567 35.19 114.225 33.5505C119.884 31.911 125.894 31.9304 131.541 33.6065C137.189 35.2825 142.237 38.5448 146.085 43.0055C149.932 47.4663 152.419 52.938 153.248 58.7703C154.077 64.6027 153.215 70.5506 150.763 75.9071C148.311 81.2636 144.373 85.8035 139.416 88.9874C134.459 92.1713 128.693 93.8652 122.802 93.8679V93.8679ZM122.722 33.0038C114.911 33.0057 107.405 36.035 101.782 41.4552C96.1582 46.8754 92.8545 54.2645 92.565 62.0697C92.2755 69.8748 95.0228 77.4883 100.23 83.3102C105.436 89.1321 112.697 92.7091 120.486 93.2895C128.275 93.8699 135.985 91.4085 141.997 86.4226C148.01 81.4367 151.855 74.3144 152.725 66.5526C153.596 58.7907 151.424 50.9936 146.666 44.7998C141.907 38.6059 134.934 34.4976 127.21 33.3382C125.724 33.1176 124.224 33.0059 122.722 33.0038V33.0038Z" fill="#D1D3D4"/>
<path d="M130.635 38.6487C130.595 38.9898 130.561 39.3175 130.514 39.672C130.213 41.7186 129.912 43.7586 129.598 45.7985C129.545 46.1463 129.598 46.2801 129.979 46.3737C132.07 46.8483 134.074 47.6472 135.919 48.7414C137.229 49.488 138.278 50.6192 138.924 51.9818C139.57 53.3444 139.782 54.8726 139.53 56.3594C139.421 58.0322 138.778 59.626 137.698 60.9075C137.048 61.6149 136.261 62.1817 135.383 62.5729C135.129 62.6933 134.868 62.7936 134.527 62.9341C135.002 63.1682 135.41 63.3488 135.805 63.5628C137.658 64.5794 139.189 65.9238 139.764 68.0239C140.015 69.0132 140.117 70.0345 140.065 71.0538C139.992 72.9283 139.483 74.76 138.581 76.4045C137.959 77.566 137.083 78.5725 136.019 79.3494C134.955 80.1264 133.73 80.6537 132.434 80.8923C130.012 81.3727 127.53 81.4742 125.077 81.1933C124.16 81.1131 124.328 81.0997 124.207 81.8622C123.886 83.9824 123.579 86.1026 123.257 88.2295L123.177 88.7779L118.542 88.1091L119.659 80.5847L115.994 80.0429L114.87 87.5673L110.229 86.8985L111.366 79.2269L102.042 77.8425L103.794 72.4918C103.975 72.4918 104.149 72.4918 104.323 72.5453C105.266 72.6857 106.216 72.8396 107.165 72.9599C107.394 73.0113 107.631 73.0135 107.86 72.9664C108.089 72.9193 108.306 72.8239 108.496 72.6867C108.686 72.5494 108.844 72.3734 108.96 72.1703C109.077 71.9672 109.149 71.7416 109.172 71.5086C109.172 71.3949 109.205 71.2812 109.225 71.1675C110.202 64.5861 111.181 58.007 112.161 51.4301C112.255 51.0927 112.273 50.7386 112.214 50.3934C112.155 50.0482 112.02 49.7203 111.82 49.4333C111.619 49.1462 111.357 48.9072 111.053 48.7332C110.749 48.5592 110.41 48.4547 110.061 48.427C108.911 48.2264 107.747 48.0792 106.55 47.8987L107.286 42.9493L116.589 44.3137L117.72 36.7224L122.328 37.3912C122.328 37.5852 122.328 37.7859 122.281 37.9798C121.973 40.0666 121.659 42.16 121.351 44.2468L121.271 44.7886L124.95 45.337L126.047 37.9464L130.635 38.6487ZM116.977 74.3511C117.062 74.3796 117.15 74.402 117.238 74.418C119.104 74.6588 120.963 74.9665 122.836 75.0868C124.498 75.2542 126.176 75.0766 127.765 74.5652C128.822 74.2308 129.705 73.494 130.223 72.5141C130.741 71.5342 130.853 70.3898 130.534 69.3282C130.3 68.6667 129.932 68.0606 129.453 67.5474C128.975 67.0342 128.396 66.625 127.752 66.3452C125.806 65.4339 123.726 64.8422 121.592 64.5928C120.575 64.4323 119.545 64.2918 118.489 64.1313L116.977 74.3511ZM119.164 59.6367C120.883 59.8173 122.549 60.0915 124.221 60.1384C125.419 60.1967 126.62 60.0681 127.779 59.7571C128.417 59.5905 129.004 59.2673 129.485 58.8169C129.967 58.3664 130.329 57.8029 130.538 57.1774C130.747 56.5519 130.797 55.884 130.683 55.2344C130.569 54.5847 130.295 53.9737 129.886 53.4567C129.057 52.5098 127.968 51.8262 126.755 51.4903C124.89 50.9282 122.975 50.5475 121.037 50.3533C120.642 50.2998 120.495 50.3533 120.435 50.8014C120.047 53.557 119.626 56.3126 119.218 59.0682C119.191 59.202 119.184 59.3491 119.158 59.63L119.164 59.6367Z" fill="#267CCB"/>
<path d="M60.6812 67.3216C68.0384 71.0671 72.66 76.5382 76.4256 75.9228C80.1911 75.3075 93.9424 68.1443 93.9424 68.1443C93.9424 68.1443 95.5409 63.7634 96.7047 63.1815C97.8685 62.5996 97.1127 65.3485 96.9321 67.3283C96.9321 67.3283 103.473 63.8771 103.975 66.3451C104.59 69.3616 102.035 70.0705 99.0456 71.95C96.0559 73.8294 78.1645 87.0456 74.185 85.8818C70.2054 84.718 57.1765 77.0599 56.7952 76.8325C52.2806 74.2307 53.2972 63.5761 60.6812 67.3216Z" fill="#FAFAFA"/>
<path d="M74.76 86.2563C74.5339 86.2612 74.3084 86.2319 74.0911 86.1693C70.5329 85.1259 59.9252 79.0195 56.7616 77.1668L56.6211 77.0932C53.7853 75.4546 53.0696 70.873 54.4809 68.2713C55.0494 67.2279 56.8017 65.0073 60.8147 67.0473C63.5148 68.4753 66.1018 70.1076 68.5532 71.9298C71.7301 74.1838 74.2517 75.9428 76.3719 75.6218C79.8699 75.0466 92.4239 68.5856 93.6947 67.9235C93.989 67.1275 95.3936 63.4958 96.564 62.9072C96.6746 62.8324 96.8051 62.7925 96.9386 62.7925C97.0721 62.7925 97.2025 62.8324 97.3131 62.9072C97.788 63.2483 97.6743 64.1914 97.4268 65.83C97.38 66.151 97.3332 66.4988 97.2931 66.7998C98.6307 66.131 102.022 64.6261 103.533 65.3418C103.724 65.4265 103.891 65.5568 104.019 65.7213C104.147 65.8858 104.233 66.0793 104.269 66.2848C104.817 68.9602 103.032 69.9835 100.778 71.2743C100.276 71.5619 99.7477 71.8629 99.2059 72.204C98.6642 72.5451 97.6609 73.2407 96.3767 74.1303C87.2137 80.4641 78.3249 86.2563 74.76 86.2563ZM57.825 66.86C57.2494 66.8533 56.6837 67.01 56.1936 67.3119C55.7035 67.6138 55.309 68.0485 55.0561 68.5655C53.7786 70.9332 54.3872 75.0867 56.9689 76.5916L57.1094 76.6785C60.2596 78.5111 70.8138 84.5975 74.3052 85.6142C77.442 86.5439 90.491 77.5146 96.0691 73.6621C97.3599 72.7658 98.3833 72.0636 98.9183 71.7225C99.4534 71.3813 100.009 71.0536 100.517 70.7794C102.717 69.5153 104.169 68.6859 103.714 66.4386C103.697 66.3257 103.651 66.219 103.58 66.1288C103.51 66.0387 103.418 65.968 103.313 65.9236C102.028 65.315 98.4033 66.947 97.1125 67.6292C97.0647 67.6568 97.0105 67.6713 96.9553 67.6713C96.9001 67.6713 96.8459 67.6568 96.7981 67.6292C96.7529 67.5985 96.7166 67.5562 96.6931 67.5069C96.6696 67.4575 96.6597 67.4027 96.6644 67.3483C96.7112 66.8466 96.7847 66.3116 96.865 65.7832C96.9854 64.994 97.1794 63.6764 96.9988 63.4489C96.9988 63.4489 96.9519 63.4489 96.8784 63.5025C96.1092 63.8904 94.8719 66.646 94.2632 68.2913C94.2514 68.3277 94.2322 68.3614 94.2069 68.3901C94.1816 68.4189 94.1507 68.4422 94.1161 68.4585C93.5543 68.7528 80.2779 75.6552 76.5056 76.2705C74.1379 76.6585 71.5362 74.8125 68.2388 72.4715C65.8087 70.6732 63.249 69.0569 60.5806 67.6359C59.7384 67.1544 58.7941 66.8793 57.825 66.8333V66.86Z" fill="#38434B"/>
<path d="M55.7983 78.5915L69.9509 86.5039L74.3652 73.3144C74.3652 73.3144 58.0054 64.0577 55.7983 64.8737C53.5911 65.6897 50.4342 72.786 55.7983 78.5915Z" fill="#267CCB"/>
<path d="M69.9517 86.805C69.8979 86.8045 69.845 86.7907 69.7978 86.7649L55.652 78.8593C55.581 78.8185 55.5287 78.7517 55.5062 78.673C55.4838 78.5943 55.4928 78.51 55.5316 78.4379C55.551 78.4029 55.5773 78.3721 55.6088 78.3474C55.6403 78.3227 55.6764 78.3045 55.715 78.2939C55.7536 78.2833 55.794 78.2806 55.8337 78.2857C55.8734 78.2909 55.9117 78.304 55.9462 78.3242L70.0988 86.2365C70.1596 86.2678 70.2079 86.3188 70.2359 86.3811C70.2638 86.4435 70.2697 86.5135 70.2526 86.5796C70.2355 86.6458 70.1964 86.7041 70.1417 86.7451C70.087 86.7861 70.02 86.8072 69.9517 86.805Z" fill="#38434B"/>
<path d="M74.3657 73.6222C74.3193 73.6314 74.2716 73.6314 74.2252 73.6222L59.8252 66.4055C59.7887 66.3885 59.7561 66.3642 59.7294 66.3341C59.7027 66.3039 59.6825 66.2687 59.6699 66.2304C59.6574 66.1922 59.6528 66.1518 59.6565 66.1117C59.6602 66.0717 59.6721 66.0328 59.6914 65.9975C59.7085 65.9611 59.7328 65.9285 59.7627 65.9016C59.7927 65.8748 59.8277 65.8542 59.8657 65.8411C59.9038 65.828 59.944 65.8227 59.9842 65.8254C60.0243 65.8281 60.0635 65.8389 60.0994 65.857L74.4994 73.0403C74.5722 73.0776 74.6275 73.1418 74.6537 73.2192C74.6799 73.2966 74.675 73.3812 74.6399 73.455C74.6146 73.5059 74.5755 73.5487 74.5269 73.5782C74.4784 73.6078 74.4225 73.6231 74.3657 73.6222V73.6222Z" fill="#38434B"/>
<path d="M49.1101 155.742L46 161.367C48.6507 162.972 51.6164 163.987 54.6949 164.343C55.5443 164.417 61.7979 164.651 61.5638 163.473C61.3297 162.296 54.735 159.808 54.735 159.808L56.5409 158.009L49.1101 155.742Z" fill="#38434B"/>
<path d="M114.094 148.565L107.707 153.287C107.707 153.287 111.553 159.755 112.028 159.574C112.503 159.394 124.328 151.776 123.398 151.18C120.836 149.568 116.041 151.889 116.041 151.889L114.094 148.565Z" fill="#38434B"/>
</svg>
